<?xml version="1.0" encoding="UTF-8" standalone="no"?>
<!-- Created with Inkscape (http://www.inkscape.org/) -->

<svg
   version="1.1"
   id="svg66"
   width="394.35904"
   height="143.53542"
   viewBox="0 0 394.35904 143.53542"
   xmlns="http://www.w3.org/2000/svg"
   xmlns:svg="http://www.w3.org/2000/svg">
  <defs
     id="defs70" />
  <g
     id="g72"
     style="display:inline"
     transform="translate(-273.00607,-56)">
    <path
       style="fill:#f4f3f3"
       d="M 366.22506,162.89594 C 361.63711,161.7975 354,155.46159 354,152.75378 354,151.35003 364.90656,141 366.38579,141 366.7236,141 367,142.02487 367,143.27749 c 0,5.94777 6.01584,8.57569 16.6033,7.25287 7.48138,-0.93474 10.90541,-3.97595 12.50031,-11.10275 1.13025,-5.05049 1.06563,-5.7247 -0.7874,-8.21483 -1.66567,-2.23837 -2.91912,-2.76564 -7.16746,-3.01504 -2.83181,-0.16624 -5.1485,-0.61624 -5.14819,-1 3e-4,-0.38376 2.96152,-3.34562 6.58049,-6.58191 6.55401,-5.86098 6.59495,-5.87968 10.38714,-4.74351 7.98425,2.39214 12.8552,10.83897 11.56583,20.05658 -1.7484,12.49921 -7.45721,21.07101 -16.67386,25.03591 -6.03221,2.59499 -21.5042,3.63841 -28.6351,1.93113 z m 55.89586,0.16524 c -5.45727,-1.39114 -7.92541,-3.12939 -9.67322,-6.81263 -3.31802,-6.99222 0.29863,-16.50362 7.76307,-20.41604 3.77129,-1.97668 6.13073,-2.29634 19.53923,-2.64719 15.89277,-0.41584 17.37624,-0.91623 13.67857,-4.61389 C 452.13636,127.27922 449.12693,127 436.49144,127 h -15.3657 l 0.5997,-3.75 c 0.32984,-2.0625 0.9013,-4.875 1.26991,-6.25 l 0.67021,-2.5 16.70678,0.15152 c 19.0034,0.17235 20.3281,0.38409 24.5317,3.92119 5.4105,4.55264 5.67279,8.2271 1.96369,27.51018 L 463.61373,163 h -6.30687 C 451.58258,163 451,162.80756 451,160.91667 c 0,-1.14584 -0.3375,-1.90961 -0.75,-1.69727 -7.97171,4.10347 -20.42848,5.80478 -28.12908,3.84178 z m 27.24422,-13.13376 C 450.81431,148.7875 452,146.9875 452,145.92742 452,144.13108 451.18244,144 439.97856,144 c -11.98702,0 -12.02484,0.007 -13.21043,2.60955 -1.8677,4.09917 0.83637,5.39045 11.28814,5.39045 7.26107,0 9.10322,-0.33761 11.30887,-2.07258 z m -148.80732,11.58046 c -12.9036,-4.5967 -18.19856,-16.94919 -14.06615,-32.81458 4.07224,-15.6344 13.49257,-25.37339 27.71692,-28.65451 2.36028,-0.544445 13.00205,-1.000899 23.6484,-1.014344 15.29016,-0.01931 19.25414,0.243567 18.86747,1.251224 -0.26924,0.70162 -1.01708,3.81688 -1.66186,6.92281 l -1.17235,5.64714 -18.69512,0.32741 c -17.16995,0.3007 -19.04176,0.51257 -22.94401,2.59695 -5.46816,2.9208 -9.20375,8.60208 -10.12024,15.39138 -0.94294,6.98525 0.0632,11.48678 3.28922,14.71557 l 2.62077,2.62307 20.04328,0.30887 c 11.10117,0.17108 19.90331,0.70511 19.72956,1.19701 -0.17254,0.48848 -3.46371,3.61043 -7.31371,6.93768 l -7,6.04955 -14.5,-0.0404 c -9.81808,-0.0274 -15.77289,-0.49389 -18.44218,-1.44478 z M 480.02043,160.75 c -6.45651,-3.29912 -8.38491,-6.50869 -8.84938,-14.72867 -0.57478,-10.17217 1.88738,-17.17359 8.28357,-23.55521 C 486.17698,115.75908 489.17615,115 508.95392,115 h 16.22188 l -0.66095,4.25 c -1.39635,8.97875 -0.83869,8.71708 -18.61883,8.73635 -11.9966,0.013 -12.73197,0.13228 -15.26018,2.47534 C 485.65297,135.07965 484.27152,144.27152 488,148 c 1.73432,1.73432 3.42801,2.01573 12.75,2.11842 5.9125,0.0651 11.17099,0.0373 11.68553,-0.0618 0.51454,-0.0992 1.97704,0.0811 3.25,0.40063 2.95894,0.74265 3.00119,3.54863 0.13033,8.65664 L 513.63172,163 h -14.60397 c -13.1735,0 -15.03528,-0.22039 -19.00732,-2.25 z M 521,160.5651 c 0,-3.90759 1.36661,-6.59966 11.55694,-22.76576 10.87839,-17.25765 14.40972,-21.17236 20.61271,-22.8505 5.872,-1.5886 16.76608,-0.6971 21.50104,1.7595 8.37804,4.34671 9.35893,10.82005 4.92848,32.52524 -1.42954,7.00347 -2.59917,12.96597 -2.59917,13.25 0,0.28403 -3.375,0.51642 -7.5,0.51642 -4.125,0 -7.5,-0.16312 -7.5,-0.36248 0,-0.19937 1.125,-5.88625 2.5,-12.63752 4.26273,-20.93005 3.78472,-22 -9.82874,-22 -12.61245,0 -12.9105,0.38814 -16.70113,21.75 l -2.3512,13.25 h -7.30947 C 521.23148,163 521,162.92289 521,160.5651 Z M 353,142.21109 c 0,-2.11645 0.71737,-6.29226 1.59416,-9.27959 2.01535,-6.86651 9.71852,-14.82026 16.23945,-16.76768 5.5246,-1.64988 18.18817,-2.74062 18.09841,-1.55886 -0.0374,0.49227 -8.13738,7.77086 -18,16.17463 L 353,146.05918 Z M 524.21461,143 c 0.27993,-0.825 2.47752,-11.2875 4.88352,-23.25 L 533.47267,98 h 7.26367 c 6.87326,0 7.26235,0.12093 7.23921,2.25 -0.0699,6.43612 -2.65139,12.10719 -12.17656,26.75 -10.0353,15.42704 -12.58476,18.94827 -11.58438,16 z"
       id="path186" />
    <g
       id="g448">
      <path
         style="fill:#dd2828"
         d="m 493.59711,195.5 c 1.57466,-2.75 6.35948,-10.78743 10.63295,-17.86095 C 508.50353,170.56553 512,164.61688 512,164.41983 c 0,-0.19705 -5.5125,-0.49982 -12.25,-0.67283 l -12.25,-0.31456 13.01044,-0.21622 13.01045,-0.21622 5.39409,-9.25 c 2.96676,-5.0875 10.10642,-16.45 15.86593,-25.25 5.75951,-8.8 10.72978,-16.675 11.04504,-17.5 0.31526,-0.825 0.94875,-1.95 1.40775,-2.5 0.45901,-0.55 8.45546,-12.5875 17.7699,-26.75 C 574.31804,67.5875 582.20424,56 582.52849,56 c 0.32425,0 0.3891,0.3375 0.1441,0.75 -5.65906,9.528304 -38.12252,62.56225 -41.16547,67.25 -11.0904,17.08508 -18.61466,29.12287 -19.20791,30.73006 -0.35933,0.97347 -0.95936,1.99494 -1.33339,2.26994 -0.37404,0.275 -6.87102,9.725 -14.43774,21 -14.21607,21.18305 -17.87623,26.13648 -12.93097,17.5 z m -176.3106,-32.24008 c 3.18258,-0.19905 8.13258,-0.1972 11,0.004 2.86742,0.20131 0.26349,0.36417 -5.78651,0.36191 -6.05,-0.002 -8.39607,-0.16696 -5.21349,-0.36601 z m 203.36655,-0.01 c -0.25574,-0.4125 1.8552,-0.62143 4.69098,-0.46428 9.19534,0.50957 10.31439,0.91131 2.96498,1.06445 -3.95504,0.0824 -7.40023,-0.18767 -7.65596,-0.60017 z m 44.59694,0.0215 c 2.0625,-0.21574 5.4375,-0.21574 7.5,0 2.0625,0.21575 0.375,0.39226 -3.75,0.39226 -4.125,0 -5.8125,-0.17651 -3.75,-0.39226 z m 12.60414,-0.94728 c -0.62653,-0.75492 -0.85002,-1.66171 -0.49664,-2.01508 0.35337,-0.35338 0.6425,-0.11122 0.6425,0.53813 0,0.64936 4.6125,-3.65382 10.25,-9.5626 5.6375,-5.90878 20.53718,-21.44007 33.11041,-34.51397 L 644.22081,93 h 11.33058 c 6.23182,0 11.54643,0.349258 11.81025,0.776129 0.26382,0.426871 -14.62111,16.419401 -33.07763,35.538951 l -33.55731,34.76282 -10.86671,-0.19054 c -7.80113,-0.13678 -11.18807,-0.57775 -12.00585,-1.56311 z m 68.40161,0.92993 -10.24426,-0.32402 -3.80553,-5.21508 c -2.09304,-2.86829 -4.75747,-6.58097 -5.92096,-8.25039 l -2.11544,-3.0353 7.03727,-7.29264 c 3.8705,-4.01096 7.3784,-6.92007 7.79533,-6.4647 0.41694,0.45537 5.33227,7.25065 10.92296,15.10061 9.3169,13.08198 11.01905,16.59251 7.76586,16.01644 -0.65504,-0.11599 -5.80089,-0.3567 -11.43523,-0.53492 z M 334,162.62244 c 0,-0.20765 0.7875,-0.99515 1.75,-1.75 1.58606,-1.24387 1.62143,-1.2085 0.37756,0.37756 C 334.82119,162.91575 334,163.44548 334,162.62244 Z M 402.5,156 c 0.99549,-1.1 2.03498,-2 2.30998,-2 0.275,0 -0.31449,0.9 -1.30998,2 -0.99549,1.1 -2.03498,2 -2.30998,2 -0.275,0 0.31449,-0.9 1.30998,-2 z m 30.75,-4.73504 c 2.6125,-0.206 6.8875,-0.206 9.5,0 2.6125,0.206 0.475,0.37454 -4.75,0.37454 -5.225,0 -7.3625,-0.16854 -4.75,-0.37454 z M 517,151 c -0.90129,-0.58246 -1.02463,-0.97549 -0.30902,-0.98469 0.65504,-0.008 1.4691,0.43469 1.80902,0.98469 0.7673,1.24153 0.42112,1.24153 -1.5,0 z m -140.75,-0.71625 c 1.5125,-0.22913 3.9875,-0.22913 5.5,0 1.5125,0.22912 0.275,0.41659 -2.75,0.41659 -3.025,0 -4.2625,-0.18747 -2.75,-0.41659 z m 49.82895,-1.86708 c 0.048,-1.16495 0.28494,-1.4019 0.60416,-0.60417 0.28887,0.72187 0.25335,1.58437 -0.0789,1.91667 -0.33229,0.33229 -0.56864,-0.25834 -0.52522,-1.3125 z M 352.19495,143.5 c 0.0204,-1.65 0.2445,-2.20394 0.49804,-1.23097 0.25354,0.97297 0.23687,2.32297 -0.0371,3 -0.27393,0.67703 -0.48137,-0.11903 -0.46099,-1.76903 z m 44,-8 c 0.0204,-1.65 0.2445,-2.20394 0.49804,-1.23097 0.25354,0.97297 0.23687,2.32297 -0.0371,3 -0.27393,0.67703 -0.48137,-0.11903 -0.46099,-1.76903 z m 185.884,-1.08333 c 0.048,-1.16495 0.28494,-1.4019 0.60416,-0.60417 0.28887,0.72187 0.25335,1.58437 -0.0789,1.91667 -0.33229,0.33229 -0.56864,-0.25834 -0.52522,-1.3125 z m -61.26645,-7.09978 c 0.72187,-0.28887 1.58438,-0.25335 1.91667,0.0789 0.33229,0.3323 -0.25834,0.56864 -1.3125,0.52522 -1.16495,-0.048 -1.4019,-0.28494 -0.60417,-0.60416 z M 360.5,122 c 0.99549,-1.1 2.03498,-2 2.30998,-2 0.275,0 -0.31449,0.9 -1.30998,2 -0.99549,1.1 -2.03498,2 -2.30998,2 -0.275,0 0.31449,-0.9 1.30998,-2 z m 239.92874,-8.75 c -3.78575,-5.3625 -8.35884,-11.70077 -10.16241,-14.08505 -1.80358,-2.384278 -3.02477,-4.746778 -2.71377,-5.25 C 587.86357,93.411727 593.18768,93 599.38391,93 h 11.26587 l 5.79628,8.09586 5.79629,8.09586 -5.37118,5.58305 c -2.95414,3.07068 -5.90153,6.17754 -6.54974,6.90414 -0.64822,0.7266 -1.59053,1.32109 -2.09404,1.32109 -0.50351,0 -4.0129,-4.3875 -7.79865,-9.75 z M 276.75303,117.02605 273.00606,116.5 277.87,108 l 4.86393,-8.5 6.13304,-0.297717 C 292.24014,99.038538 295,99.275648 295,99.729194 c 0,0.453546 -1.80585,3.227986 -4.01299,6.165416 -2.20715,2.93744 -4.76023,6.60576 -5.67352,8.15183 -1.9022,3.22017 -3.32343,3.71486 -8.56046,2.97961 z M 449.75,114.29427 c 1.2375,-0.23836 3.2625,-0.23836 4.5,0 1.2375,0.23835 0.225,0.43337 -2.25,0.43337 -2.475,0 -3.4875,-0.19502 -2.25,-0.43337 z m 53.54571,-0.0384 c 4.28763,-0.1879 11.03763,-0.18676 15,0.003 3.96236,0.1893 0.45429,0.34304 -7.79571,0.34164 -8.25,-0.001 -11.49193,-0.15629 -7.20429,-0.34419 z M 327.25,113.25543 c 4.8125,-0.18331 12.6875,-0.18331 17.5,0 4.8125,0.18332 0.875,0.3333 -8.75,0.3333 -9.625,0 -13.5625,-0.14998 -8.75,-0.3333 z"
         id="path184" />
    </g>
  </g>
</svg>
